<?xml version="1.0" encoding="UTF-8"?>
<svg xmlns="http://www.w3.org/2000/svg" viewBox="0 0 1600 900" width="1600" height="900">
  <defs>
    <linearGradient id="bg" x1="0" y1="0" x2="1" y2="1">
      <stop offset="0%" stop-color="#0a1f44"/>
      <stop offset="50%" stop-color="#0f3b8a"/>
      <stop offset="100%" stop-color="#012465"/>
    </linearGradient>
    <radialGradient id="glow" cx="70%" cy="30%" r="60%">
      <stop offset="0%" stop-color="#ffffff" stop-opacity="0.18"/>
      <stop offset="100%" stop-color="#ffffff" stop-opacity="0"/>
    </radialGradient>
    <linearGradient id="wave1" x1="0" y1="0" x2="1" y2="0">
      <stop offset="0%" stop-color="#4fc3f7" stop-opacity="0.18"/>
      <stop offset="100%" stop-color="#81d4fa" stop-opacity="0.05"/>
    </linearGradient>
    <linearGradient id="wave2" x1="0" y1="0" x2="1" y2="0">
      <stop offset="0%" stop-color="#a5d6a7" stop-opacity="0.15"/>
      <stop offset="100%" stop-color="#e1f5fe" stop-opacity="0.05"/>
    </linearGradient>
    <filter id="blur">
      <feGaussianBlur stdDeviation="40"/>
    </filter>
  </defs>

  <!-- Background -->
  <rect width="1600" height="900" fill="url(#bg)"/>

  <!-- Soft spotlight glow -->
  <circle cx="1150" cy="260" r="520" fill="url(#glow)"/>

  <!-- Abstract blurred orbs -->
  <circle cx="220" cy="180" r="160" fill="#4fc3f7" opacity="0.18" filter="url(#blur)"/>
  <circle cx="1450" cy="740" r="180" fill="#81d4fa" opacity="0.14" filter="url(#blur)"/>
  <circle cx="820" cy="760" r="140" fill="#b39ddb" opacity="0.1" filter="url(#blur)"/>

  <!-- Waves -->
  <path d="M0,640 C220,580 420,760 640,700 C900,628 1060,740 1300,690 C1450,660 1600,720 1600,720 L1600,900 L0,900 Z" fill="url(#wave1)"/>
  <path d="M0,700 C200,760 420,680 640,740 C860,800 1120,720 1340,770 C1480,802 1600,780 1600,780 L1600,900 L0,900 Z" fill="url(#wave2)"/>

  <!-- Subtle diagonal lines for texture -->
  <g opacity="0.05">
    <defs>
      <pattern id="lines" patternUnits="userSpaceOnUse" width="40" height="40" patternTransform="rotate(35)">
        <rect width="40" height="40" fill="none"/>
        <rect x="0" y="0" width="2" height="40" fill="#fff"/>
      </pattern>
    </defs>
    <rect width="1600" height="900" fill="url(#lines)"/>
  </g>
</svg>
